@startuml
'https://plantuml.com/class-diagram
interface IProduct {
    +void doSomething()
}

class ConcreteProductA
class ConcreteProductB

class AppClient
class Factory {
    {static} +IProduct factoryMethod(params)
}

IProduct <|.. ConcreteProductA
IProduct <|.. ConcreteProductB

Factory ..> ConcreteProductA
Factory ..> ConcreteProductB

AppClient ..> Factory

@enduml