@startuml
'https://plantuml.com/class-diagram

interface Component {
    +void request()
}

class Decorator {
    +void request()
    -Component component
}

Component <|.. Decorator
Decorator .> Component : component

class ConcreteComponent1 {
    +void request()
}

class ConcreteComponent2 {
    +void request()
}

Component <|.. ConcreteComponent1
Component <|.. ConcreteComponent2

class ConcreteDecorator1 {
    +void request()
    -void newMethod()
}

class ConcreteDecorator2 {
    +void request()
    -void newMethod2()
}


Decorator <|-- ConcreteDecorator1
Decorator <|-- ConcreteDecorator2

class AppClient {
    Component component;
    Decorator decorator;
}

AppClient ..> Component
AppClient ..> Decorator

@enduml